#N canvas -8 -8 1904 1026 10;
#X text 13 2 Be sure to select your Launchpad as the first MIDI input
and output device in PD preferences, f 49;
#X obj 32 420 notein;
#X obj 61 718 expr $f1 % 16 < 8;
#X obj 28 735 spigot;
#X obj 28 701 t f f, f 6;
#X obj 207 466 spigot;
#X obj 207 429 t f f;
#X obj 234 446 expr $f1 % 16 > 7;
#X obj 208 489 expr $f1 / 16 - 0.5;
#X obj 846 113 ctlin;
#X obj 846 138 swap;
#X obj 845 238 pack f f;
#X obj 1026 614 spigot;
#X obj 668 682 spigot;
#X text 71 734 Launchpad Pad Note -> 0-63;
#X text 254 466 RHS Buttons;
#X text 843 91 Control Messages (Top Buttons);
#X text 888 109 Top buttons 104-111;
#X text 1110 94 104: learn ^ btn;
#X text 1109 114 105: view down btn;
#X text 1110 134 106: page < btn;
#X text 1113 152 107: page > btn;
#X text 1113 170 108: inst session btn;
#X text 1114 192 109: fx user 1 btn;
#X text 1116 230 111: mixer mixer btn;
#X text 1113 211 110: user user 2 btn;
#X obj 845 262 route 104 105 106 107 108 109 110 111;
#X text 1067 652 Send Step;
#X text 1213 370 Mixer btn (111);
#X obj 1152 368 expr $f1;
#X text 1150 350 user (user 2) btn (110);
#X obj 667 584 spigot;
#X obj 1090 353 expr $f1;
#X text 1088 335 fx (user 1) btn (109);
#X obj 671 481 spigot;
#X text 722 483 comment;
#X text 712 583 comment;
#X text 716 685 comment;
#X obj 722 464 expr if($f1 > 0 \, 1 \, 0);
#X text 1335 430 Page > (107);
#X obj 722 567 expr if($f1 > 0 \, 1 \, 0);
#X obj 719 665 expr if($f1 > 0 \, 1 \, 0);
#X obj 1336 481 expr if($f1>0 \, 1 \, 0);
#X obj 1215 388 expr $f1;
#X obj 1337 448 expr $f1;
#X obj 692 350 spigot;
#X obj 750 330 expr if($f1 > 0 \, 1 \, 0);
#X obj 1028 334 expr $f1;
#X text 1026 317 inst session btn (108);
#X text 670 309 PAD: Jump Step (PLAYING step) (Hold inst session 108)
, f 55;
#X text 672 420 PAD: Select PLAY Length (Hold Fx User 1 109);
#X text 669 547 PAD: Select PLAY Pattern (Hold User 2 110);
#X text 666 644 PAD: Select *EDIT* Pattern (Hold Mixer 111);
#X text 1067 665 Send step if ctrl btns not pressed;
#X obj 1086 586 expr if($f1 > 0 \, 0 \, 1);
#X obj 1428 509 expr if($f1>0 \, 1 \, 0);
#X obj 1329 555 expr ($f1+$f2)==2;
#X obj 1330 580 spigot;
#X text 1248 533 Toggle Performance Mode: user user 2 btn + Page >
btn;
#X obj 32 444 stripnote;
#X obj 1342 344 prepend sendtyped /tsseq/play/state/tog i;
#X obj 1328 601 prepend sendtyped /tsseq/mode/tog i;
#X obj 1026 634 prepend sendtyped /tsseq/edit/step/tog i;
#X obj 916 162 stripnote;
#X obj 916 199 pack f f;
#X obj 917 226 route 104 105 106 107;
#X text 1362 321 Play/Pause: Page > btn;
#X obj 1088 287 s OSC;
#X obj 1026 658 s OSC;
#X obj 692 392 s OSC;
#X obj 669 527 s OSC;
#X obj 1328 622 s OSC;
#X obj 1342 366 s OSC;
#X obj 1098 553 loadbang;
#X obj 667 618 s OSC;
#X obj 667 730 s OSC;
#X obj 1029 538 s OSC;
#X obj 28 794 s press;
#X obj 1026 588 r press;
#X obj 665 662 r press;
#X obj 667 564 r press;
#X obj 671 439 r press;
#X obj 692 329 r press;
#X text 1028 425 Right Side Buttons: Select *EDIT* Channel 1-8 (Hold
Mixer button for 9-16), f 47;
#X obj 149 691 noteout;
#X obj 223 535 s sidebtns;
#X obj 1029 457 r sidebtns;
#X obj 198 562 uzi 8;
#X obj 198 600 cup;
#X msg 212 581 0;
#X obj 115 590 f;
#X obj 170 536 t b b;
#X obj 202 647 expr ($f1 + 1) * 16 - 8;
#X obj 136 564 delay 20;
#X obj 202 669 makenote 12 1;
#X obj 1043 498 s edit_ch;
#X obj 125 615 r edit_ch;
#X obj 77 671 pack f f;
#X obj 28 752 expr (int($f1/16)*8 + $f1 % 16);
#X obj 28 773 + 1;
#X obj 1029 521 prepend sendtyped /tsseq/edit/ch i;
#X obj 1029 474 expr if($f2 > 0 \, $f1 + 8 \, $f1) + 1;
#X msg 1087 265 send /tsseq/play/reset, f 27;
#X obj 692 371 prepend sendtyped /tsseq/play/step i;
#X obj 671 506 prepend sendtyped /tsseq/play/len i;
#X obj 671 461 f;
#X obj 667 601 prepend sendtyped /tsseq/play/pat i;
#X obj 668 707 prepend sendtyped /tsseq/edit/pat i;
#X obj 45 645 expr if($f1 > 7 \, 15 \, 13);
#X obj 1286 278 s OSC;
#X msg 1285 256 send /tsseq/edit/step/rnd, f 27;
#X obj 34 138 r OSC;
#X obj 74 46 import mrpeach;
#X obj 34 161 packOSC;
#X obj 37 298 udpsend;
#X msg 65 267 disconnect;
#X obj 307 151 udpreceive 7000;
#X obj 307 168 unpackOSC;
#X obj 307 185 routeOSC /tsseq;
#X obj 346 336 routeOSC /state /patt /len /omode;
#X obj 346 386 ctlout 107;
#X text 418 383 PLAY status;
#N canvas 0 0 450 300 (subpatch) 0;
#X array active_steps 64 float 2 black black;
#X coords 0 1 64 -1 102 34 1;
#X restore 333 17 graph;
#N canvas 1221 21 450 438 draw_steps 0;
#X obj 223 355 noteout;
#X obj 226 172 unpack f f, f 13;
#X obj 249 189 swap;
#X obj 249 206 tabwrite active_steps;
#X obj 64 28 inlet;
#X obj 174 138 pack f f;
#X obj 174 86 s2l /;
#X obj 174 67 unpack s f;
#X obj 174 48 routeOSC /step;
#X obj 225 295 expr int($f1 / 8) * 16 + $f1 % 8;
#X obj 55 188 pack f f;
#X obj 52 214 print DEBUG;
#X obj 159 114 - 1;
#X text 370 346 color;
#X obj 323 250 r color_step;
#X obj 244 332 expr if($f1 == 0 \, 0 \, $f2);
#X connect 1 0 2 0;
#X connect 1 0 9 0;
#X connect 1 1 2 1;
#X connect 1 1 15 0;
#X connect 2 0 3 0;
#X connect 2 1 3 1;
#X connect 4 0 8 0;
#X connect 5 0 1 0;
#X connect 6 0 12 0;
#X connect 7 0 6 0;
#X connect 7 1 5 1;
#X connect 8 0 7 0;
#X connect 9 0 0 0;
#X connect 9 0 10 1;
#X connect 10 0 11 0;
#X connect 12 0 5 0;
#X connect 12 0 10 0;
#X connect 14 0 15 1;
#X connect 15 0 0 1;
#X restore 408 295 pd draw_steps;
#N canvas 660 28 450 415 playhead 0;
#X obj 142 122 tabread active_steps;
#X obj 136 98 f;
#X obj 113 219 expr int($f1 / 8) * 16 + $f1 % 8;
#X obj 97 349 noteout;
#X obj 116 74 t f f b;
#X obj 125 180 noteout;
#X obj 125 163 expr int($f1 / 8) * 16 + $f1 % 8;
#X text 171 326 PLAYHEAD 44 = med green;
#X obj 29 12 inlet;
#X obj 78 42 - 1;
#X obj 141 259 r color_play;
#X obj 98 326 pack f f;
#X obj 230 259 loadbang;
#X msg 190 293 44;
#X text 290 138 color;
#X obj 269 72 r color_step;
#X obj 141 141 expr if($f1 == 0 \, 0 \, $f2);
#X connect 0 0 16 0;
#X connect 1 0 0 0;
#X connect 1 0 6 0;
#X connect 2 0 11 0;
#X connect 4 0 2 0;
#X connect 4 1 1 1;
#X connect 4 2 1 0;
#X connect 6 0 5 0;
#X connect 8 0 9 0;
#X connect 9 0 4 0;
#X connect 10 0 11 1;
#X connect 11 0 3 0;
#X connect 12 0 13 0;
#X connect 13 0 11 1;
#X connect 15 0 16 1;
#X connect 16 0 5 1;
#X restore 307 271 pd playhead;
#X obj 348 215 routeOSC /play /edit;
#X obj 308 241 routeOSC /clock;
#X obj 346 363 expr if($f1 > 0 \, 60 \, 0);
#X obj 379 484 s color_play;
#X msg 380 462 60;
#X text 412 462 Color = (16 x Green) + Red + 12;
#X obj 380 438 loadbang;
#X msg 384 541 15;
#X text 414 540 Color = (16 x Green) + Red + 12;
#X obj 383 563 s color_step;
#X obj 383 517 loadbang;
#X msg 49 231 connect 127.0.0.1 7001;
#X obj 49 190 loadbang;
#X text 56 211 Outgoing OSC Port (to trigSeq64);
#X text 307 130 Incoming OSC Port (from trigSeq64);
#X connect 1 0 59 0;
#X connect 1 1 59 1;
#X connect 2 0 3 1;
#X connect 3 0 98 0;
#X connect 4 0 3 0;
#X connect 4 1 2 0;
#X connect 5 0 8 0;
#X connect 6 0 5 0;
#X connect 6 1 7 0;
#X connect 7 0 5 1;
#X connect 8 0 85 0;
#X connect 8 0 91 0;
#X connect 9 0 10 0;
#X connect 9 1 10 1;
#X connect 10 0 11 0;
#X connect 10 0 63 0;
#X connect 10 1 11 1;
#X connect 10 1 63 1;
#X connect 11 0 26 0;
#X connect 12 0 62 0;
#X connect 13 0 107 0;
#X connect 26 3 44 0;
#X connect 26 4 47 0;
#X connect 26 5 32 0;
#X connect 26 6 29 0;
#X connect 26 7 43 0;
#X connect 29 0 40 0;
#X connect 29 0 54 0;
#X connect 29 0 55 0;
#X connect 31 0 106 0;
#X connect 32 0 38 0;
#X connect 32 0 54 0;
#X connect 34 0 104 0;
#X connect 38 0 34 1;
#X connect 40 0 31 1;
#X connect 41 0 13 1;
#X connect 42 0 56 0;
#X connect 43 0 41 0;
#X connect 43 0 54 0;
#X connect 43 0 101 1;
#X connect 44 0 42 0;
#X connect 45 0 103 0;
#X connect 46 0 45 1;
#X connect 47 0 46 0;
#X connect 47 0 54 0;
#X connect 54 0 12 1;
#X connect 55 0 56 1;
#X connect 56 0 57 1;
#X connect 56 0 57 0;
#X connect 57 0 61 0;
#X connect 59 0 4 0;
#X connect 59 0 6 0;
#X connect 59 0 90 1;
#X connect 60 0 72 0;
#X connect 61 0 71 0;
#X connect 62 0 68 0;
#X connect 63 0 64 0;
#X connect 63 1 64 1;
#X connect 64 0 65 0;
#X connect 65 0 110 0;
#X connect 65 2 102 0;
#X connect 65 3 60 0;
#X connect 73 0 54 0;
#X connect 78 0 12 0;
#X connect 79 0 13 0;
#X connect 80 0 31 0;
#X connect 81 0 105 0;
#X connect 82 0 45 0;
#X connect 86 0 101 0;
#X connect 87 0 88 0;
#X connect 87 1 89 0;
#X connect 88 0 92 0;
#X connect 89 0 88 0;
#X connect 90 0 97 0;
#X connect 91 0 93 0;
#X connect 91 1 87 0;
#X connect 92 0 94 0;
#X connect 93 0 90 0;
#X connect 94 0 84 0;
#X connect 94 1 84 1;
#X connect 96 0 108 0;
#X connect 97 0 84 0;
#X connect 98 0 99 0;
#X connect 99 0 77 0;
#X connect 100 0 76 0;
#X connect 101 0 95 0;
#X connect 101 0 100 0;
#X connect 102 0 67 0;
#X connect 103 0 69 0;
#X connect 104 0 70 0;
#X connect 105 0 34 0;
#X connect 106 0 74 0;
#X connect 107 0 75 0;
#X connect 108 0 97 1;
#X connect 110 0 109 0;
#X connect 111 0 113 0;
#X connect 113 0 114 0;
#X connect 115 0 114 0;
#X connect 116 0 117 0;
#X connect 117 0 118 0;
#X connect 118 0 125 0;
#X connect 118 0 126 0;
#X connect 119 0 127 0;
#X connect 125 0 119 0;
#X connect 125 1 123 0;
#X connect 126 0 124 0;
#X connect 127 0 120 0;
#X connect 129 0 128 0;
#X connect 131 0 129 0;
#X connect 132 0 134 0;
#X connect 135 0 132 0;
#X connect 136 0 114 0;
#X connect 137 0 136 0;
