#N canvas 647 318 308 151 10;
#N canvas 457 343 1324 591 send_OSC 0;
#X obj 327 45 cnv 15 305 63 empty empty empty 20 12 0 14 -135168 -66577
0;
#X obj 260 304 r OSC;
#X obj 76 9 import mrpeach;
#X obj 260 327 packOSC;
#X obj 313 365 udpsend;
#X obj 389 319 prepend connect;
#X obj 389 298 pack s f;
#X obj 436 269 fromsymbol;
#X msg 313 298 disconnect;
#X obj 461 172 t b s b;
#X obj 376 392 s def_ip;
#X obj 376 373 prepend set;
#X obj 334 172 t s s b;
#X obj 376 354 tosymbol;
#X obj 465 373 prepend set;
#X obj 465 354 tosymbol;
#X obj 75 32 loadbang;
#X obj 75 49 t b b b;
#X obj 39 160 s IP;
#X msg 201 124 7001;
#X obj 201 141 l2s;
#X msg 39 118 127.0.0.1;
#X obj 39 139 tosymbol;
#X obj 47 97 r def_ip;
#X obj 542 64 bng 15 250 50 0 empty empty empty 17 7 0 10 -262144 -1
-1;
#X text 559 63 Disconnect;
#X symbolatom 334 64 15 0 0 2 IP IP -, f 15;
#X symbolatom 490 64 7 0 0 2 Out_Port OUT_PORT -, f 7;
#X obj 201 158 s OUT_PORT;
#X text 338 79 (127.0.0.1 for local machine), f 14;
#X symbolatom 435 64 7 0 0 2 In_Port IN_PORT -, f 7;
#X obj 212 95 r def_out_port;
#X obj 465 392 s def_out_port;
#X obj 593 265 udpreceive 7000;
#X obj 593 282 unpackOSC;
#X obj 593 299 routeOSC /tsseq;
#X obj 593 316 routeOSC /clock /reset /step /play;
#X obj 743 343 routeOSC /state /patt /len /omode;
#X obj 743 393 ctlout 107;
#X obj 743 370 expr if($f1 > 0 \, 32 \, 0);
#X text 815 390 PLAY status;
#N canvas 0 0 450 300 (subpatch) 0;
#X array active_steps 64 float 2 black black;
#X coords 0 1 64 -1 102 34 1;
#X restore 690 57 graph;
#N canvas 42 453 450 323 draw_steps 0;
#X obj 145 202 noteout;
#X obj 145 112 unpack f f, f 13;
#X obj 145 166 expr int($f1 / 8) * 16 + $f1 % 8;
#X obj 168 129 swap;
#X obj 168 146 tabwrite active_steps;
#X obj 164 185 expr if($f1 == 0 \, 0 \, 14);
#X obj 133 56 inlet;
#X connect 1 0 2 0;
#X connect 1 0 3 0;
#X connect 1 1 3 1;
#X connect 1 1 5 0;
#X connect 2 0 0 0;
#X connect 3 0 4 0;
#X connect 3 1 4 1;
#X connect 5 0 0 1;
#X connect 6 0 1 0;
#X restore 694 421 pd draw_steps;
#N canvas 883 210 450 323 playhead 0;
#X obj 142 122 tabread active_steps;
#X obj 136 98 f;
#X obj 113 219 expr int($f1 / 8) * 16 + $f1 % 8;
#X obj 113 265 noteout;
#X obj 116 74 t f f b;
#X obj 125 180 noteout;
#X obj 125 163 expr int($f1 / 8) * 16 + $f1 % 8;
#X obj 141 141 expr if($f1 == 0 \, 0 \, 14);
#X text 296 141 14 = med red;
#X obj 114 242 pack f 44;
#X text 187 242 PLAYHEAD 44 = med green;
#X obj 96 28 inlet;
#X connect 0 0 7 0;
#X connect 1 0 0 0;
#X connect 1 0 6 0;
#X connect 2 0 9 0;
#X connect 4 0 2 0;
#X connect 4 1 1 1;
#X connect 4 2 1 0;
#X connect 6 0 5 0;
#X connect 7 0 5 1;
#X connect 9 0 3 0;
#X connect 11 0 4 0;
#X restore 593 388 pd playhead;
#X obj 593 245 prepend port;
#X obj 593 212 fromsymbol;
#X obj 567 178 t b s b;
#X msg 670 211 7000;
#X obj 103 138 tosymbol;
#X obj 111 95 r def_in_port;
#X obj 103 159 s IN_PORT;
#X msg 103 116 7000;
#X obj 20 43 bng 15 250 50 0 empty empty empty 17 7 0 10 -262144 -1
-1;
#X obj 707 268 prepend set;
#X obj 707 249 tosymbol;
#X obj 707 287 s def_in_port;
#X obj 118 355 system;
#X msg 118 331 ipconfig & pause;
#X obj 441 88 bng 15 250 50 0 empty empty empty 17 7 0 10 -262144 -1
-1;
#X text 460 86 Show Local IP Info;
#X obj 327 26 cnv 15 305 19 empty empty OSC\ Config 4 6 0 14 -2112
-262144 0;
#X connect 1 0 3 0;
#X connect 3 0 4 0;
#X connect 5 0 4 0;
#X connect 6 0 5 0;
#X connect 7 0 6 1;
#X connect 7 0 15 0;
#X connect 8 0 4 0;
#X connect 9 0 6 0;
#X connect 9 1 7 0;
#X connect 9 2 8 0;
#X connect 11 0 10 0;
#X connect 12 0 13 0;
#X connect 12 1 6 0;
#X connect 12 2 8 0;
#X connect 13 0 11 0;
#X connect 14 0 32 0;
#X connect 15 0 14 0;
#X connect 16 0 17 0;
#X connect 17 0 21 0;
#X connect 17 1 51 0;
#X connect 17 2 19 0;
#X connect 19 0 20 0;
#X connect 20 0 28 0;
#X connect 21 0 22 0;
#X connect 22 0 18 0;
#X connect 23 0 21 0;
#X connect 24 0 8 0;
#X connect 26 0 12 0;
#X connect 27 0 9 0;
#X connect 30 0 46 0;
#X connect 31 0 19 0;
#X connect 33 0 34 0;
#X connect 34 0 35 0;
#X connect 35 0 36 0;
#X connect 36 0 43 0;
#X connect 36 2 42 0;
#X connect 36 3 37 0;
#X connect 37 0 39 0;
#X connect 39 0 38 0;
#X connect 44 0 33 0;
#X connect 45 0 44 0;
#X connect 45 0 54 0;
#X connect 46 0 6 0;
#X connect 46 1 45 0;
#X connect 46 2 8 0;
#X connect 47 0 44 0;
#X connect 48 0 50 0;
#X connect 49 0 51 0;
#X connect 51 0 48 0;
#X connect 52 0 17 0;
#X connect 53 0 55 0;
#X connect 54 0 53 0;
#X connect 57 0 56 0;
#X connect 58 0 57 0;
#X coords 0 -1 1 1 307 84 2 326 25;
#X restore 6 39 pd send_OSC;
#N canvas 550 79 1214 861 MIDI_crap 0;
#X obj 32 -213 notein;
#X obj 28 119 expr int($f1/16)*8 + $f1 % 16;
#X obj 61 85 expr $f1 % 16 < 8;
#X obj 28 102 spigot;
#X obj 28 68 t f f, f 6;
#X obj 207 -167 spigot;
#X obj 207 -204 t f f;
#X obj 234 -187 expr $f1 % 16 > 7;
#X obj 208 -144 expr $f1 / 16 - 0.5;
#X obj 407 -193 ctlin;
#X obj 407 -168 swap;
#X obj 406 -68 pack f f;
#X obj 610 345 spigot;
#X obj 319 461 spigot;
#X text 71 101 Launchpad Pad Note -> 0-63;
#X text 252 -167 RHS Buttons;
#X text 404 -215 Control Messages (Top Buttons);
#X text 449 -197 Top buttons 104-111;
#X text 671 -212 104: learn ^ btn;
#X text 670 -192 105: view down btn;
#X text 671 -172 106: page < btn;
#X text 674 -154 107: page > btn;
#X text 674 -136 108: inst session btn;
#X text 675 -114 109: fx user 1 btn;
#X text 677 -76 111: mixer mixer btn;
#X text 674 -95 110: user user 2 btn;
#X obj 406 -44 route 104 105 106 107 108 109 110 111;
#X text 651 383 Send Step;
#X text 560 43 Mixer btn (111);
#X obj 615 181 expr if($f2 > 0 \, $f1 + 8 \, $f1);
#X obj 499 41 expr $f1;
#X text 497 23 user (user 2) btn (110);
#X obj 318 363 spigot;
#X obj 437 26 expr $f1;
#X text 435 8 fx (user 1) btn (109);
#X obj 321 253 spigot;
#X text 372 255 comment;
#X text 363 362 comment;
#X text 367 464 comment;
#X obj 321 233 + 1;
#X obj 372 236 expr if($f1 > 0 \, 1 \, 0);
#X text 921 177 Page > (107);
#X obj 373 346 expr if($f1 > 0 \, 1 \, 0);
#X obj 370 444 expr if($f1 > 0 \, 1 \, 0);
#X obj 922 228 expr if($f1>0 \, 1 \, 0);
#X obj 562 61 expr $f1;
#X obj 923 195 expr $f1;
#X obj 326 127 spigot;
#X obj 384 107 expr if($f1 > 0 \, 1 \, 0);
#X obj 375 7 expr $f1;
#X text 373 -10 inst session btn (108);
#X text 327 83 PAD: Jump Step (PLAYING step) (Hold inst session 108)
, f 55;
#X text 322 192 PAD: Select PLAY Length (Hold Fx User 1 109);
#X text 320 326 PAD: Select PLAY Pattern (Hold User 2 110);
#X text 317 423 PAD: Select *EDIT* Pattern (Hold Mixer 111);
#X text 651 396 Send step if ctrl btns not pressed;
#X obj 670 317 expr if($f1 > 0 \, 0 \, 1);
#X obj 1014 256 expr if($f1>0 \, 1 \, 0);
#X obj 915 302 expr ($f1+$f2)==2;
#X obj 916 327 spigot;
#X text 834 280 Toggle Performance Mode: user user 2 btn + Page > btn
;
#X obj 32 -189 stripnote;
#X obj 679 69 prepend sendtyped /tsseq/play/state/tog i;
#X obj 914 348 prepend sendtyped /tsseq/mode/tog i;
#X obj 321 278 prepend sendtyped /tsseq/play/len/set i;
#X obj 319 486 prepend sendtyped /tsseq/edit/pat/set i;
#X obj 615 228 prepend sendtyped /tsseq/edit/ch/set i;
#X obj 318 380 prepend sendtyped /tsseq/play/pat/set i;
#X obj 326 148 prepend sendtyped /tsseq/play/step/set i;
#X obj 610 365 prepend sendtyped /tsseq/edit/step/tog i;
#X obj 477 -144 stripnote;
#X obj 477 -107 pack f f;
#X obj 478 -80 route 104 105 106 107;
#X text 699 46 Play/Pause: Page > btn;
#X obj 649 -19 s OSC;
#X msg 648 -41 send /tsseq/reset/set, f 27;
#X obj 610 389 s OSC;
#X obj 326 169 s OSC;
#X obj 319 299 s OSC;
#X obj 914 369 s OSC;
#X obj 679 91 s OSC;
#X obj 682 284 loadbang;
#X obj 318 397 s OSC;
#X obj 318 509 s OSC;
#X obj 615 245 s OSC;
#X obj 27 141 s press;
#X obj 610 319 r press;
#X obj 316 441 r press;
#X obj 318 343 r press;
#X obj 321 211 r press;
#X obj 326 106 r press;
#X text 614 132 Right Side Buttons: Select *EDIT* Channel 1-8 (Hold
Mixer button for 9-16), f 47;
#X obj 149 58 noteout;
#X obj 223 -98 s sidebtns;
#X obj 615 164 r sidebtns;
#X obj 198 -71 uzi 8;
#X obj 198 -33 cup;
#X msg 212 -52 0;
#X obj 115 -43 f;
#X obj 170 -97 t b b;
#X obj 202 14 expr ($f1 + 1) * 16 - 8;
#X obj 136 -69 delay 20;
#X obj 202 36 makenote 12 1;
#X obj 629 205 s edit_ch;
#X obj 125 -18 r edit_ch;
#X obj 77 38 pack f f;
#X obj 45 12 expr if($f1 > 7 \, 48 \, 58);
#X obj 730 -3 cnv 15 305 19 empty empty MIDI\ I/O\ Patch 4 6 0 14 -2112
-262144 0;
#X connect 0 0 61 0;
#X connect 0 1 61 1;
#X connect 1 0 85 0;
#X connect 2 0 3 1;
#X connect 3 0 1 0;
#X connect 4 0 3 0;
#X connect 4 1 2 0;
#X connect 5 0 8 0;
#X connect 6 0 5 0;
#X connect 6 1 7 0;
#X connect 7 0 5 1;
#X connect 8 0 93 0;
#X connect 8 0 99 0;
#X connect 9 0 10 0;
#X connect 9 1 10 1;
#X connect 10 0 11 0;
#X connect 10 0 70 0;
#X connect 10 1 11 1;
#X connect 10 1 70 1;
#X connect 11 0 26 0;
#X connect 12 0 69 0;
#X connect 13 0 65 0;
#X connect 26 3 46 0;
#X connect 26 4 49 0;
#X connect 26 5 33 0;
#X connect 26 6 30 0;
#X connect 26 7 45 0;
#X connect 29 0 66 0;
#X connect 29 0 103 0;
#X connect 30 0 42 0;
#X connect 30 0 56 0;
#X connect 30 0 57 0;
#X connect 32 0 67 0;
#X connect 33 0 40 0;
#X connect 33 0 56 0;
#X connect 35 0 64 0;
#X connect 39 0 35 0;
#X connect 40 0 35 1;
#X connect 42 0 32 1;
#X connect 43 0 13 1;
#X connect 44 0 58 0;
#X connect 45 0 29 1;
#X connect 45 0 43 0;
#X connect 45 0 56 0;
#X connect 46 0 44 0;
#X connect 47 0 68 0;
#X connect 48 0 47 1;
#X connect 49 0 48 0;
#X connect 49 0 56 0;
#X connect 56 0 12 1;
#X connect 57 0 58 1;
#X connect 58 0 59 1;
#X connect 58 0 59 0;
#X connect 59 0 63 0;
#X connect 61 0 4 0;
#X connect 61 0 6 0;
#X connect 61 0 98 1;
#X connect 62 0 80 0;
#X connect 63 0 79 0;
#X connect 64 0 78 0;
#X connect 65 0 83 0;
#X connect 66 0 84 0;
#X connect 67 0 82 0;
#X connect 68 0 77 0;
#X connect 69 0 76 0;
#X connect 70 0 71 0;
#X connect 70 1 71 1;
#X connect 71 0 72 0;
#X connect 72 2 75 0;
#X connect 72 3 62 0;
#X connect 75 0 74 0;
#X connect 81 0 56 0;
#X connect 86 0 12 0;
#X connect 87 0 13 0;
#X connect 88 0 32 0;
#X connect 89 0 39 0;
#X connect 90 0 47 0;
#X connect 94 0 29 0;
#X connect 95 0 96 0;
#X connect 95 1 97 0;
#X connect 96 0 100 0;
#X connect 97 0 96 0;
#X connect 98 0 105 0;
#X connect 99 0 101 0;
#X connect 99 1 95 0;
#X connect 100 0 102 0;
#X connect 101 0 98 0;
#X connect 102 0 92 0;
#X connect 102 1 92 1;
#X connect 104 0 106 0;
#X connect 105 0 92 0;
#X connect 106 0 105 1;
#X coords 0 -1 1 1 307 21 2 729 -4;
#X restore 6 125 pd MIDI_crap;
#X text 17 4 Be sure to select your Launchpad as the first MIDI input
and output device in PD preferences, f 49;
